<svg xmlns="http://www.w3.org/2000/svg" viewBox="0 0 24.74 24.74"><defs><style>.cls-1{fill:#c58d0f;}.cls-2{fill:#fff;}</style></defs><title>Asset 5</title><g id="Layer_2" data-name="Layer 2"><g id="Layer_1-2" data-name="Layer 1"><rect class="cls-1" width="24.74" height="24.74" rx="5.43" ry="5.43"/><path class="cls-2" d="M18,20.6H6.7A2.57,2.57,0,0,1,4.14,18V6.7A2.57,2.57,0,0,1,6.7,4.14H18A2.57,2.57,0,0,1,20.6,6.7V18A2.57,2.57,0,0,1,18,20.6ZM6.7,5.14A1.57,1.57,0,0,0,5.14,6.7V18A1.57,1.57,0,0,0,6.7,19.6H18A1.57,1.57,0,0,0,19.6,18V6.7A1.57,1.57,0,0,0,18,5.14Z"/><path class="cls-2" d="M12.37,15.74a3.38,3.38,0,1,1,3.38-3.38A3.38,3.38,0,0,1,12.37,15.74Zm0-5.76a2.38,2.38,0,1,0,2.38,2.38A2.38,2.38,0,0,0,12.37,10Z"/><path class="cls-2" d="M16.86,8.82a1,1,0,1,1,1-1A1,1,0,0,1,16.86,8.82Zm0-1a0,0,0,0,0,0,0s.09,0,.09,0A0,0,0,0,0,16.86,7.83Z"/></g></g></svg>