<svg xmlns="http://www.w3.org/2000/svg" viewBox="0 0 24.74 24.74"><defs><style>.cls-1{fill:#c58d0f;}.cls-2{fill:#fff;}</style></defs><title>Asset 4</title><g id="Layer_2" data-name="Layer 2"><g id="Layer_1-2" data-name="Layer 1"><rect class="cls-1" width="24.74" height="24.74" rx="5.43" ry="5.43"/><path class="cls-2" d="M9.72,7.62A1.29,1.29,0,0,1,8.34,8.9,1.25,1.25,0,0,1,7,7.62a1.25,1.25,0,0,1,1.35-1.3A1.29,1.29,0,0,1,9.72,7.62ZM7.07,18.16V9.91H9.64v8.25Z"/><path class="cls-2" d="M11.69,12.54c0-1,0-1.91-.07-2.63h2.23L14,11H14a3,3,0,0,1,2.55-1.32c1.69,0,3,1.11,3,3.54v4.89H17V13.59c0-1.06-.37-1.79-1.3-1.79a1.37,1.37,0,0,0-1.3,1,1.76,1.76,0,0,0-.1.64v4.76H11.69Z"/></g></g></svg>