<svg xmlns="http://www.w3.org/2000/svg" viewBox="0 0 98.98 120.62"><defs><style>.cls-1{fill:#c58d0f;}</style></defs><title>Asset 2</title><g id="Layer_2" data-name="Layer 2"><g id="Layer_1-2" data-name="Layer 1"><path class="cls-1" d="M97.19,103.93a5.58,5.58,0,0,0-7.88.31A15.24,15.24,0,0,1,78,109.4c-.71,0-1.41-.1-2.07-.2l-.45-.13h-.38c-6.85-1.19-12.72-5.32-18.43-13l0,0A38.36,38.36,0,0,0,26.5,80.65c-.53,0-1.06,0-1.6,0-.17,0-.33-.05-.5-.05A21.63,21.63,0,0,0,2.8,102.22a18.42,18.42,0,0,0,18.4,18.4A15.85,15.85,0,0,0,37,104.78a5.57,5.57,0,1,0-11.15,0,4.69,4.69,0,0,1-4.69,4.69,7.26,7.26,0,0,1-7.25-7.25A10.44,10.44,0,0,1,21,92.37a22.12,22.12,0,0,1,5.24-.58,27.29,27.29,0,0,1,21.52,11h0c7.51,10,15.95,15.7,25.78,17.32l.44.13h.19a16.49,16.49,0,0,0,3.19.32h.72A26.65,26.65,0,0,0,97.5,111.8,5.57,5.57,0,0,0,97.19,103.93Z"/><path class="cls-1" d="M9,76.81C21.85,66.71,42.39,71,52.76,81.11l.12.09.1.11c1.65,1.44,3.33,3.13,5.11,4.91,6.08,6.09,12.37,12.39,20.37,12.39h.1c4.3,0,8.32-1.93,11.94-5.66l.21-.22c14.82-17-1.33-35.09-23.68-60.11-4.66-5.21-9.88-11.07-15.25-17.35a.71.71,0,0,1,.13-1l2.24-1.54a2.39,2.39,0,0,0,.15-3.83L44.07.54a2.39,2.39,0,0,0-3.9,1.86V16.61c0,.06,0,.11,0,.17V60.12a1.29,1.29,0,0,1-1.61,1.24q-1.87-.45-3.77-.76a1.28,1.28,0,0,1-1.09-1.26V47.56a3.65,3.65,0,0,0-6.81-1.84A48.89,48.89,0,0,1,7.69,64.48a36.84,36.84,0,0,0-5.35,3.36A5.77,5.77,0,0,0,.87,75.48,5.58,5.58,0,0,0,9,76.81ZM67,65.8c-2.11,2.49-8.42,5.21-15.74-.29V32.16C71.86,52.56,72.42,59.46,67,65.8Z"/></g></g></svg>