<?xml version="1.0" encoding="utf-8"?>
<!-- Generator: Adobe Illustrator 21.1.0, SVG Export Plug-In . SVG Version: 6.00 Build 0)  -->
<svg version="1.1" id="Layer_1" xmlns="http://www.w3.org/2000/svg" xmlns:xlink="http://www.w3.org/1999/xlink" x="0px" y="0px"
	 viewBox="0 0 193.6 30.2" style="enable-background:new 0 0 193.6 30.2;" xml:space="preserve">
<style type="text/css">
	.st0{fill:#414042;}
</style>
<g>
	<path class="st0" d="M0.2,7.3l2.4-0.4v1c0,1,0.6,1.5,1.4,1.5c0.8,0,1.3-0.6,1.3-1.5V0.2h2.5V8c0,2.1-1.6,3.8-3.8,3.8
		c-2.2,0-3.8-1.5-3.8-3.7V7.3z"/>
	<path class="st0" d="M21.3,9.3H17l-0.8,2.3h-2.7l4.3-11.3h2.9l4.2,11.3h-2.8L21.3,9.3z M17.8,7h2.8l-1.4-3.9L17.8,7z"/>
	<path class="st0" d="M29.8,5.9c0-3.5,2.7-5.9,5.9-5.9c3.4,0,4.9,2.2,5.3,3.8l-2.4,0.8c-0.2-0.8-0.9-2.1-2.9-2.1
		c-1.5,0-3.2,1.1-3.2,3.5c0,2.1,1.6,3.4,3.3,3.4c2,0,2.8-1.3,3-2.1l2.4,0.7c-0.4,1.6-1.9,4-5.4,4C32.4,11.8,29.8,9.5,29.8,5.9z"/>
	<path class="st0" d="M52.8,0c3.2,0,5.9,2.3,5.9,5.9c0,3.6-2.7,5.9-5.9,5.9c-3.2,0-5.9-2.3-5.9-5.9C46.9,2.3,49.6,0,52.8,0z
		 M52.8,9.3c1.6,0,3.3-1.1,3.3-3.4c0-2.4-1.7-3.4-3.3-3.4c-1.6,0-3.3,1.1-3.3,3.4C49.5,8.3,51.2,9.3,52.8,9.3z"/>
	<path class="st0" d="M69.5,0.2c2.2,0,3.5,1.3,3.5,3c0,1.2-0.7,2.1-1.7,2.4c1,0.2,2,1.2,2,2.7c0,1.9-1.4,3.2-3.6,3.2h-4.6V0.2H69.5z
		 M69.1,4.8c0.9,0,1.5-0.5,1.5-1.2c0-0.7-0.5-1.2-1.5-1.2h-1.3v2.4H69.1z M69.3,9.5c1,0,1.6-0.5,1.6-1.3c0-0.8-0.6-1.3-1.6-1.3h-1.6
		v2.7H69.3z"/>
	<path class="st0" d="M92.5,7.1l-1.3,1.4v3h-2.5V0.2h2.5V5l4.1-4.8h3.3l-4.4,4.9l4.4,6.4h-3.2L92.5,7.1z"/>
	<path class="st0" d="M104.9,11.6V0.2h7.2v2.4h-4.7v2.2h4.2V7h-4.2v2.2h4.7v2.4H104.9z"/>
	<path class="st0" d="M126.2,11.6l-4.7-7.5v7.5H119V0.2h3.1l4.3,6.9V0.2h2.5v11.3H126.2z"/>
	<path class="st0" d="M143.3,11.6l-4.7-7.5v7.5h-2.5V0.2h3.1l4.3,6.9V0.2h2.5v11.3H143.3z"/>
	<path class="st0" d="M153.2,11.6V0.2h2.6v11.3H153.2z"/>
	<path class="st0" d="M170.2,11.6l-4.7-7.5v7.5H163V0.2h3.1l4.3,6.9V0.2h2.5v11.3H170.2z"/>
	<path class="st0" d="M188.6,11.6l-0.2-1.2c-0.5,0.7-1.6,1.4-3.2,1.4c-3.2,0-5.7-2.3-5.7-5.9c0-3.6,2.7-5.9,5.9-5.9
		c3.2,0,4.8,1.9,5.2,3.5l-2.4,0.8c-0.2-0.7-0.9-2-2.8-2c-1.5,0-3.3,1-3.3,3.6c0,2.4,1.6,3.6,3.4,3.6c1.9,0,2.7-1.2,2.8-1.9h-3.4V5.5
		h5.8v6.1H188.6z"/>
</g>
<g>
	<g>
		<path class="st0" d="M1.4,22L3,26.1L4.6,22h0.9v4.9H4.8v-4.1h0l-1.5,4.1H2.7l-1.5-4.1h0v4.1H0.6V22H1.4z"/>
		<path class="st0" d="M12,26.6c-0.3,0.3-0.8,0.5-1.4,0.5c-0.6,0-1.1-0.2-1.5-0.5c-0.4-0.3-0.5-0.8-0.5-1.4V22h0.7v3.1
			c0,0.4,0.1,0.8,0.4,1c0.2,0.2,0.6,0.3,1,0.3c0.4,0,0.7-0.1,1-0.3c0.2-0.2,0.3-0.6,0.3-1V22h0.7v3.1C12.5,25.8,12.4,26.3,12,26.6z"
			/>
		<path class="st0" d="M16.3,22v4.4h2.6v0.6h-3.3V22H16.3z"/>
		<path class="st0" d="M20.4,22.6V22h3.9v0.6h-1.6v4.4H22v-4.4H20.4z"/>
		<path class="st0" d="M27.6,22v4.9H27V22H27.6z"/>
		<path class="st0" d="M32.5,22c0.8,0,1.3,0.2,1.8,0.6c0.4,0.4,0.6,1,0.6,1.8c0,0.4,0,0.8-0.1,1.1c-0.1,0.3-0.2,0.6-0.4,0.8
			c-0.2,0.2-0.4,0.4-0.7,0.5c-0.3,0.1-0.7,0.2-1.1,0.2h-1.7V22H32.5z M32.6,26.4c0.1,0,0.2,0,0.3,0c0.1,0,0.2,0,0.4-0.1
			c0.1,0,0.2-0.1,0.4-0.2c0.1-0.1,0.2-0.2,0.3-0.3s0.2-0.3,0.2-0.5c0.1-0.2,0.1-0.5,0.1-0.8c0-0.3,0-0.6-0.1-0.8
			c-0.1-0.2-0.2-0.4-0.3-0.6c-0.1-0.2-0.3-0.3-0.5-0.4s-0.5-0.1-0.8-0.1h-1.1v3.8H32.6z"/>
		<path class="st0" d="M38.4,22v4.9h-0.7V22H38.4z"/>
		<path class="st0" d="M44.1,22.7c-0.2-0.2-0.5-0.2-0.8-0.2c-0.1,0-0.3,0-0.4,0c-0.1,0-0.3,0.1-0.4,0.1s-0.2,0.2-0.2,0.3
			c-0.1,0.1-0.1,0.2-0.1,0.4c0,0.2,0,0.3,0.1,0.4c0.1,0.1,0.2,0.2,0.4,0.2c0.1,0.1,0.3,0.1,0.5,0.1s0.4,0.1,0.6,0.1
			c0.2,0,0.4,0.1,0.6,0.2c0.2,0.1,0.4,0.1,0.5,0.3s0.3,0.2,0.4,0.4c0.1,0.2,0.1,0.4,0.1,0.6c0,0.3-0.1,0.5-0.2,0.7
			c-0.1,0.2-0.3,0.3-0.5,0.5c-0.2,0.1-0.4,0.2-0.6,0.3C43.8,27,43.6,27,43.3,27c-0.3,0-0.5,0-0.8-0.1s-0.5-0.2-0.6-0.3
			c-0.2-0.1-0.3-0.3-0.4-0.5c-0.1-0.2-0.2-0.5-0.2-0.8h0.6c0,0.2,0,0.4,0.1,0.5c0.1,0.1,0.2,0.3,0.3,0.4c0.1,0.1,0.3,0.2,0.5,0.2
			c0.2,0,0.4,0.1,0.5,0.1c0.1,0,0.3,0,0.4,0s0.3-0.1,0.4-0.1c0.1-0.1,0.2-0.2,0.3-0.3c0.1-0.1,0.1-0.3,0.1-0.4c0-0.2,0-0.3-0.1-0.4
			c-0.1-0.1-0.2-0.2-0.4-0.3s-0.3-0.1-0.5-0.2s-0.4-0.1-0.6-0.1s-0.4-0.1-0.6-0.2s-0.4-0.1-0.5-0.2s-0.3-0.2-0.4-0.4
			c-0.1-0.1-0.1-0.3-0.1-0.6c0-0.2,0-0.5,0.2-0.6c0.1-0.2,0.2-0.3,0.4-0.4s0.4-0.2,0.6-0.3c0.2-0.1,0.4-0.1,0.7-0.1
			c0.3,0,0.5,0,0.7,0.1c0.2,0.1,0.4,0.2,0.6,0.3c0.2,0.1,0.3,0.3,0.4,0.5c0.1,0.2,0.1,0.4,0.2,0.7h-0.6
			C44.4,23.1,44.3,22.8,44.1,22.7z"/>
		<path class="st0" d="M51.1,22.7c-0.3-0.2-0.5-0.3-0.9-0.3c-0.3,0-0.5,0.1-0.8,0.2c-0.2,0.1-0.4,0.3-0.5,0.4
			c-0.1,0.2-0.2,0.4-0.3,0.6c-0.1,0.2-0.1,0.5-0.1,0.7c0,0.3,0,0.5,0.1,0.8c0.1,0.3,0.2,0.5,0.3,0.7c0.1,0.2,0.3,0.3,0.5,0.4
			c0.2,0.1,0.5,0.2,0.8,0.2c0.2,0,0.4,0,0.6-0.1c0.2-0.1,0.3-0.2,0.4-0.3c0.1-0.1,0.2-0.3,0.3-0.5c0.1-0.2,0.1-0.4,0.1-0.6h0.7
			c-0.1,0.6-0.3,1.1-0.6,1.4c-0.4,0.3-0.9,0.5-1.5,0.5c-0.4,0-0.7-0.1-1-0.2c-0.3-0.1-0.5-0.3-0.7-0.5c-0.2-0.2-0.3-0.5-0.4-0.8
			c-0.1-0.3-0.1-0.6-0.1-1c0-0.4,0-0.7,0.2-1c0.1-0.3,0.2-0.6,0.4-0.8s0.4-0.4,0.7-0.6c0.3-0.1,0.6-0.2,1-0.2c0.3,0,0.5,0,0.7,0.1
			c0.2,0.1,0.4,0.2,0.6,0.3c0.2,0.1,0.3,0.3,0.4,0.5c0.1,0.2,0.2,0.4,0.2,0.7h-0.7C51.5,23.1,51.3,22.9,51.1,22.7z"/>
		<path class="st0" d="M55.9,22v4.9h-0.7V22H55.9z"/>
		<path class="st0" d="M61.2,22c0.5,0,0.9,0.1,1.1,0.4c0.3,0.3,0.4,0.6,0.4,1.1c0,0.5-0.1,0.8-0.4,1.1c-0.3,0.3-0.6,0.4-1.1,0.4
			h-1.5v2H59V22H61.2z M61,24.4c0.4,0,0.6-0.1,0.8-0.2C62,24,62,23.8,62,23.5c0-0.3-0.1-0.5-0.3-0.7c-0.2-0.2-0.4-0.2-0.8-0.2h-1.3
			v1.8H61z"/>
		<path class="st0" d="M66.2,22v4.4h2.6v0.6h-3.3V22H66.2z"/>
		<path class="st0" d="M72.1,22v4.9h-0.7V22H72.1z"/>
		<path class="st0" d="M76,22l2.6,4h0v-4h0.6v4.9h-0.7l-2.6-4h0v4h-0.6V22H76z"/>
		<path class="st0" d="M84.4,22l1.9,4.9h-0.7l-0.5-1.5H83l-0.6,1.5h-0.7l1.9-4.9H84.4z M84.9,24.9l-0.8-2.3h0l-0.8,2.3H84.9z"/>
		<path class="st0" d="M91.2,22c0.5,0,0.8,0.1,1.1,0.3c0.3,0.2,0.4,0.5,0.4,0.9c0,0.3-0.1,0.6-0.2,0.8s-0.4,0.4-0.7,0.5v0
			c0.1,0,0.3,0.1,0.3,0.1c0.1,0.1,0.2,0.1,0.2,0.2s0.1,0.2,0.1,0.3c0,0.1,0,0.2,0.1,0.3c0,0.1,0,0.2,0,0.4c0,0.1,0,0.2,0,0.4
			c0,0.1,0,0.2,0.1,0.3s0.1,0.2,0.2,0.3h-0.7c0,0-0.1-0.1-0.1-0.2c0-0.1,0-0.2,0-0.3c0-0.1,0-0.2,0-0.3c0-0.1,0-0.2,0-0.4
			c0-0.1,0-0.2-0.1-0.3c0-0.1-0.1-0.2-0.1-0.3c-0.1-0.1-0.1-0.1-0.2-0.2c-0.1,0-0.2-0.1-0.4-0.1h-1.6v2.1h-0.7V22H91.2z M91.4,24.2
			c0.1,0,0.3-0.1,0.4-0.1s0.2-0.2,0.2-0.3c0.1-0.1,0.1-0.3,0.1-0.4c0-0.2-0.1-0.5-0.2-0.6s-0.4-0.2-0.7-0.2h-1.6v1.7h1.4
			C91.1,24.3,91.2,24.3,91.4,24.2z"/>
		<path class="st0" d="M97.5,26.9h-0.7v-2L94.9,22h0.8l1.5,2.3l1.4-2.3h0.7l-1.9,2.9V26.9z"/>
		<path class="st0" d="M108.9,22.7c-0.3-0.2-0.5-0.3-0.9-0.3c-0.3,0-0.5,0.1-0.8,0.2c-0.2,0.1-0.4,0.3-0.5,0.4
			c-0.1,0.2-0.2,0.4-0.3,0.6c-0.1,0.2-0.1,0.5-0.1,0.7c0,0.3,0,0.5,0.1,0.8c0.1,0.3,0.2,0.5,0.3,0.7c0.1,0.2,0.3,0.3,0.5,0.4
			c0.2,0.1,0.5,0.2,0.8,0.2c0.2,0,0.4,0,0.6-0.1c0.2-0.1,0.3-0.2,0.4-0.3c0.1-0.1,0.2-0.3,0.3-0.5c0.1-0.2,0.1-0.4,0.1-0.6h0.7
			c-0.1,0.6-0.3,1.1-0.6,1.4c-0.4,0.3-0.9,0.5-1.5,0.5c-0.4,0-0.7-0.1-1-0.2c-0.3-0.1-0.5-0.3-0.7-0.5c-0.2-0.2-0.3-0.5-0.4-0.8
			c-0.1-0.3-0.1-0.6-0.1-1c0-0.4,0-0.7,0.2-1c0.1-0.3,0.2-0.6,0.4-0.8s0.4-0.4,0.7-0.6c0.3-0.1,0.6-0.2,1-0.2c0.3,0,0.5,0,0.7,0.1
			c0.2,0.1,0.4,0.2,0.6,0.3c0.2,0.1,0.3,0.3,0.4,0.5c0.1,0.2,0.2,0.4,0.2,0.7h-0.7C109.4,23.1,109.2,22.9,108.9,22.7z"/>
		<path class="st0" d="M115.3,22c0.5,0,0.8,0.1,1.1,0.3c0.3,0.2,0.4,0.5,0.4,0.9c0,0.3-0.1,0.6-0.2,0.8s-0.4,0.4-0.7,0.5v0
			c0.1,0,0.3,0.1,0.3,0.1c0.1,0.1,0.2,0.1,0.2,0.2s0.1,0.2,0.1,0.3c0,0.1,0,0.2,0.1,0.3c0,0.1,0,0.2,0,0.4c0,0.1,0,0.2,0,0.4
			c0,0.1,0,0.2,0.1,0.3s0.1,0.2,0.2,0.3h-0.7c0,0-0.1-0.1-0.1-0.2c0-0.1,0-0.2,0-0.3c0-0.1,0-0.2,0-0.3c0-0.1,0-0.2,0-0.4
			c0-0.1,0-0.2-0.1-0.3c0-0.1-0.1-0.2-0.1-0.3c-0.1-0.1-0.1-0.1-0.2-0.2c-0.1,0-0.2-0.1-0.4-0.1h-1.6v2.1H113V22H115.3z M115.5,24.2
			c0.1,0,0.3-0.1,0.4-0.1s0.2-0.2,0.2-0.3c0.1-0.1,0.1-0.3,0.1-0.4c0-0.2-0.1-0.5-0.2-0.6s-0.4-0.2-0.7-0.2h-1.6v1.7h1.4
			C115.2,24.3,115.3,24.3,115.5,24.2z"/>
		<path class="st0" d="M123.2,22v0.6h-2.7v1.6h2.6v0.6h-2.6v1.7h2.8v0.6h-3.4V22H123.2z"/>
		<path class="st0" d="M128.1,22l1.9,4.9h-0.7l-0.5-1.5h-2.1l-0.6,1.5h-0.7l1.9-4.9H128.1z M128.6,24.9l-0.8-2.3h0l-0.8,2.3H128.6z"
			/>
		<path class="st0" d="M131.5,22.6V22h3.9v0.6h-1.6v4.4h-0.7v-4.4H131.5z"/>
		<path class="st0" d="M138.7,22v4.9H138V22H138.7z"/>
		<path class="st0" d="M143.1,26.9l-1.7-4.9h0.7l1.4,4.3h0l1.4-4.3h0.7l-1.8,4.9H143.1z"/>
		<path class="st0" d="M151.5,22v0.6h-2.7v1.6h2.6v0.6h-2.6v1.7h2.8v0.6h-3.4V22H151.5z"/>
		<path class="st0" d="M162.2,26.9l-1.1-4.1h0l-1.1,4.1h-0.7L158,22h0.7l1,4.1h0l1.1-4.1h0.7l1.1,4.1h0l1-4.1h0.7l-1.3,4.9H162.2z"
			/>
		<path class="st0" d="M166.7,23.5c0.1-0.3,0.2-0.6,0.4-0.8c0.2-0.2,0.4-0.4,0.7-0.6s0.6-0.2,1-0.2s0.7,0.1,1,0.2s0.5,0.3,0.7,0.6
			c0.2,0.2,0.3,0.5,0.4,0.8s0.1,0.6,0.1,1s0,0.7-0.1,1s-0.2,0.6-0.4,0.8c-0.2,0.2-0.4,0.4-0.7,0.6c-0.3,0.1-0.6,0.2-1,0.2
			s-0.7-0.1-1-0.2c-0.3-0.1-0.5-0.3-0.7-0.6c-0.2-0.2-0.3-0.5-0.4-0.8s-0.1-0.6-0.1-1S166.6,23.8,166.7,23.5z M167.3,25.2
			c0.1,0.2,0.2,0.5,0.3,0.7c0.1,0.2,0.3,0.3,0.5,0.5c0.2,0.1,0.5,0.2,0.8,0.2s0.6-0.1,0.8-0.2s0.4-0.3,0.5-0.5
			c0.1-0.2,0.2-0.4,0.3-0.7c0.1-0.2,0.1-0.5,0.1-0.7s0-0.5-0.1-0.7c-0.1-0.2-0.2-0.5-0.3-0.7c-0.1-0.2-0.3-0.3-0.5-0.5
			s-0.5-0.2-0.8-0.2s-0.6,0.1-0.8,0.2c-0.2,0.1-0.4,0.3-0.5,0.5c-0.1,0.2-0.2,0.4-0.3,0.7c-0.1,0.2-0.1,0.5-0.1,0.7
			S167.3,25,167.3,25.2z"/>
		<path class="st0" d="M176.5,22c0.5,0,0.8,0.1,1.1,0.3c0.3,0.2,0.4,0.5,0.4,0.9c0,0.3-0.1,0.6-0.2,0.8s-0.4,0.4-0.7,0.5v0
			c0.1,0,0.3,0.1,0.3,0.1c0.1,0.1,0.2,0.1,0.2,0.2s0.1,0.2,0.1,0.3c0,0.1,0,0.2,0.1,0.3c0,0.1,0,0.2,0,0.4c0,0.1,0,0.2,0,0.4
			c0,0.1,0,0.2,0.1,0.3s0.1,0.2,0.2,0.3h-0.7c0,0-0.1-0.1-0.1-0.2c0-0.1,0-0.2,0-0.3c0-0.1,0-0.2,0-0.3c0-0.1,0-0.2,0-0.4
			c0-0.1,0-0.2-0.1-0.3c0-0.1-0.1-0.2-0.1-0.3c-0.1-0.1-0.1-0.1-0.2-0.2c-0.1,0-0.2-0.1-0.4-0.1h-1.6v2.1h-0.7V22H176.5z
			 M176.6,24.2c0.1,0,0.3-0.1,0.4-0.1s0.2-0.2,0.2-0.3c0.1-0.1,0.1-0.3,0.1-0.4c0-0.2-0.1-0.5-0.2-0.6s-0.4-0.2-0.7-0.2h-1.6v1.7
			h1.4C176.4,24.3,176.5,24.3,176.6,24.2z"/>
		<path class="st0" d="M181.6,22v2.5l2.5-2.5h0.8l-2.1,2l2.2,2.9h-0.8l-1.8-2.5l-0.8,0.8v1.7H181V22H181.6z"/>
		<path class="st0" d="M190.1,22.7c-0.2-0.2-0.5-0.2-0.8-0.2c-0.1,0-0.3,0-0.4,0c-0.1,0-0.3,0.1-0.4,0.1s-0.2,0.2-0.2,0.3
			c-0.1,0.1-0.1,0.2-0.1,0.4c0,0.2,0,0.3,0.1,0.4c0.1,0.1,0.2,0.2,0.4,0.2c0.1,0.1,0.3,0.1,0.5,0.1s0.4,0.1,0.6,0.1
			c0.2,0,0.4,0.1,0.6,0.2c0.2,0.1,0.4,0.1,0.5,0.3s0.3,0.2,0.4,0.4c0.1,0.2,0.1,0.4,0.1,0.6c0,0.3-0.1,0.5-0.2,0.7
			c-0.1,0.2-0.3,0.3-0.5,0.5c-0.2,0.1-0.4,0.2-0.6,0.3c-0.2,0.1-0.5,0.1-0.7,0.1c-0.3,0-0.5,0-0.8-0.1s-0.5-0.2-0.6-0.3
			c-0.2-0.1-0.3-0.3-0.4-0.5c-0.1-0.2-0.2-0.5-0.2-0.8h0.6c0,0.2,0,0.4,0.1,0.5c0.1,0.1,0.2,0.3,0.3,0.4c0.1,0.1,0.3,0.2,0.5,0.2
			c0.2,0,0.4,0.1,0.5,0.1c0.1,0,0.3,0,0.4,0s0.3-0.1,0.4-0.1c0.1-0.1,0.2-0.2,0.3-0.3c0.1-0.1,0.1-0.3,0.1-0.4c0-0.2,0-0.3-0.1-0.4
			c-0.1-0.1-0.2-0.2-0.4-0.3s-0.3-0.1-0.5-0.2s-0.4-0.1-0.6-0.1s-0.4-0.1-0.6-0.2s-0.4-0.1-0.5-0.2s-0.3-0.2-0.4-0.4
			c-0.1-0.1-0.1-0.3-0.1-0.6c0-0.2,0-0.5,0.2-0.6c0.1-0.2,0.2-0.3,0.4-0.4s0.4-0.2,0.6-0.3c0.2-0.1,0.4-0.1,0.7-0.1
			c0.3,0,0.5,0,0.7,0.1c0.2,0.1,0.4,0.2,0.6,0.3c0.2,0.1,0.3,0.3,0.4,0.5c0.1,0.2,0.1,0.4,0.2,0.7h-0.6
			C190.4,23.1,190.3,22.8,190.1,22.7z"/>
	</g>
</g>
</svg>
