<svg xmlns="http://www.w3.org/2000/svg" viewBox="0 0 190.47 11.83"><defs><style>.cls-1{fill:#414042;}</style></defs><title>Asset 11</title><g id="Layer_2" data-name="Layer 2"><g id="Layer_1-2" data-name="Layer 1"><path class="cls-1" d="M0,7.33l2.4-.42V8A1.33,1.33,0,0,0,3.78,9.43,1.31,1.31,0,0,0,5.11,8V.24H7.63V8a3.75,3.75,0,0,1-3.84,3.79A3.57,3.57,0,0,1,0,8.08Z"/><path class="cls-1" d="M21.17,9.28H16.78L16,11.59H13.31L17.58.24h2.93l4.23,11.35H22ZM17.62,7h2.75L19,3.06Z"/><path class="cls-1" d="M29.65,5.94A5.78,5.78,0,0,1,35.51,0a5,5,0,0,1,5.28,3.83l-2.38.75a2.74,2.74,0,0,0-2.9-2.11,3.23,3.23,0,0,0-3.23,3.47A3.21,3.21,0,0,0,35.54,9.3a2.9,2.9,0,0,0,3-2.13l2.42.69a5.24,5.24,0,0,1-5.39,4A5.71,5.71,0,0,1,29.65,5.94Z"/><path class="cls-1" d="M52.61,0A5.74,5.74,0,0,1,58.5,5.92a5.9,5.9,0,1,1-11.8,0A5.75,5.75,0,0,1,52.61,0Zm0,9.33a3.2,3.2,0,0,0,3.27-3.43,3.28,3.28,0,1,0-6.55,0A3.2,3.2,0,0,0,52.61,9.33Z"/><path class="cls-1" d="M69.35.24c2.24,0,3.54,1.3,3.54,3a2.54,2.54,0,0,1-1.66,2.43,2.66,2.66,0,0,1,2,2.66,3.24,3.24,0,0,1-3.55,3.22H65.1V.24Zm-.4,4.55c.88,0,1.46-.46,1.46-1.23s-.5-1.22-1.49-1.22H67.57V4.79Zm.21,4.74c1,0,1.57-.51,1.57-1.33s-.58-1.33-1.57-1.33H67.57V9.52Z"/><path class="cls-1" d="M92.32,7.12,91,8.55v3H88.51V.24H91V5L95.19.24h3.33L94.1,5.15l4.43,6.43H95.38Z"/><path class="cls-1" d="M104.72,11.59V.24h7.19V2.63h-4.66V4.79h4.23V7h-4.23V9.19h4.67v2.4Z"/><path class="cls-1" d="M126,11.59l-4.67-7.46v7.46h-2.51V.24h3.07l4.26,6.9V.24h2.53V11.59Z"/><path class="cls-1" d="M143.14,11.59l-4.67-7.46v7.46H136V.24H139l4.26,6.9V.24h2.53V11.59Z"/><path class="cls-1" d="M153.05,11.59V.24h2.56V11.59Z"/><path class="cls-1" d="M170,11.59l-4.67-7.46v7.46h-2.51V.24h3.07l4.26,6.9V.24h2.53V11.59Z"/><path class="cls-1" d="M188.4,11.59l-.16-1.15a3.76,3.76,0,0,1-3.19,1.39,5.64,5.64,0,0,1-5.75-5.91A5.77,5.77,0,0,1,185.22,0a5.1,5.1,0,0,1,5.25,3.51L188,4.35a2.73,2.73,0,0,0-2.82-2,3.29,3.29,0,0,0-3.35,3.55,3.31,3.31,0,0,0,3.41,3.6,2.69,2.69,0,0,0,2.8-1.86h-3.41V5.52h5.78v6.07Z"/></g></g></svg>