<svg xmlns="http://www.w3.org/2000/svg" viewBox="0 0 24.74 24.74"><defs><style>.cls-1{fill:#fff;}.cls-2{fill:#c58d0f;}</style></defs><title>Asset 10</title><g id="Layer_2" data-name="Layer 2"><g id="Layer_1-2" data-name="Layer 1"><rect class="cls-1" width="24.74" height="24.74" rx="5.43" ry="5.43"/><g id="_6llo3B.tif" data-name="6llo3B.tif"><path class="cls-2" d="M18.83,8.37a5,5,0,0,1-1.2,1.27.22.22,0,0,0-.1.21,7.2,7.2,0,0,1-.28,2.24,8,8,0,0,1-.76,1.8,7.69,7.69,0,0,1-1.29,1.68,7.06,7.06,0,0,1-2.32,1.53,7.52,7.52,0,0,1-2.33.53,7.86,7.86,0,0,1-2.21-.15,7.65,7.65,0,0,1-2.09-.79l-.33-.2v0a5.39,5.39,0,0,0,3.89-1.1A2.72,2.72,0,0,1,7.31,13.5a2.89,2.89,0,0,0,1.17,0,2.72,2.72,0,0,1-2.11-2.64c.21.08.39.16.58.21a3.4,3.4,0,0,0,.6.1A2.75,2.75,0,0,1,6.48,9.5a2.64,2.64,0,0,1,.29-1.92,7.62,7.62,0,0,0,5.49,2.78c0-.18,0-.33,0-.49a2.66,2.66,0,0,1,4-2.39,4.58,4.58,0,0,1,.49.39.15.15,0,0,0,.15,0,5.52,5.52,0,0,0,1.52-.57l.08,0a2.4,2.4,0,0,1-.43.81,3,3,0,0,1-.67.62A4.93,4.93,0,0,0,18.83,8.37Z"/></g></g></g></svg>